<?xml version="1.0" encoding="utf-8"?>
<!-- Generator: Adobe Illustrator 23.0.2, SVG Export Plug-In . SVG Version: 6.00 Build 0)  -->
<svg version="1.1" id="Layer_1" xmlns="http://www.w3.org/2000/svg" xmlns:xlink="http://www.w3.org/1999/xlink" x="0px" y="0px"
	 viewBox="0 0 346 47" style="enable-background:new 0 0 346 47;" xml:space="preserve">
<style type="text/css">
	.st0{fill:#FFFFFF;}
</style>
<path d="M19.1,21.9c-0.5-0.1-1.1-0.2-1.8-0.2c-2.4,0-4.8,1.6-6.1,3.8v14.9H6.7V17.9h4.4v2.6c1.1-1.5,3.5-3.1,6.8-3.1
	c0.5,0,1.2,0,1.8,0.1L19.1,21.9z"/>
<path d="M38.3,38.4c-1.8,1.6-4.3,2.5-7,2.5c-2,0-4.1-0.6-5.7-1.5c-3.4-2-5.8-5.8-5.8-10.3c0-4.5,2.4-8.3,5.8-10.3
	c1.5-0.9,3.4-1.4,5.5-1.4c2.5,0,5,0.8,7.1,2.5v-2.1h4.4v22.6h-4.4V38.4z M38.2,24.9c-1.4-1.8-3.7-3.2-6.4-3.2
	c-4.4,0-7.2,3.5-7.2,7.4c0,4,3.1,7.4,7.5,7.4c2.3,0,4.7-1.2,6.2-3.2V24.9z"/>
<path d="M64.9,38.4c-1.8,1.6-4.3,2.5-7,2.5c-2,0-4.1-0.6-5.7-1.5c-3.4-2-5.8-5.8-5.8-10.3c0-4.5,2.4-8.3,5.8-10.3
	c1.5-0.9,3.4-1.4,5.5-1.4c2.4,0,4.9,0.8,6.9,2.4V6.4h4.6v34.1h-4.4V38.4z M64.8,24.9c-1.4-1.8-3.7-3.2-6.4-3.2
	c-4.4,0-7.2,3.5-7.2,7.4c0,4,3.1,7.4,7.5,7.4c2.3,0,4.7-1.2,6.2-3.2V24.9z"/>
<path d="M77.4,6.9c1.7,0,3,1.3,3,3s-1.3,3-3,3c-1.7,0-3-1.3-3-3S75.7,6.9,77.4,6.9z M75.1,17.9h4.6v22.6h-4.6V17.9z"/>
<path d="M95.2,17.4c6.7,0,11.7,5,11.7,11.8c0,6.7-5,11.8-11.7,11.8s-11.7-5-11.7-11.8C83.5,22.5,88.5,17.4,95.2,17.4z M95.2,36.6
	c4.2,0,7.1-3.3,7.1-7.4c0-4.1-2.9-7.4-7.1-7.4s-7.1,3.3-7.1,7.4C88.1,33.3,91,36.6,95.2,36.6z"/>
<path d="M132.5,40.5h-6.1l-11.2-11v11h-4.6V6.4h4.6v20.2l9.4-8.6h6.4l-11.3,10.2L132.5,40.5z"/>
<path d="M136.9,6.9c1.7,0,3,1.3,3,3s-1.3,3-3,3c-1.7,0-3-1.3-3-3S135.3,6.9,136.9,6.9z M134.7,17.9h4.6v22.6h-4.6V17.9z"/>
<path d="M158.9,40.5c-0.9,0.3-2.3,0.5-3.6,0.5c-2.8,0-4.9-1-6.4-2.6c-1.3-1.5-1.8-3.6-1.8-6V22h-5.8v-4.1h5.8v-6.2h4.6v6.2h7.2V22
	h-7.2v10.6c0,1.2,0.1,2.2,0.7,2.9c0.6,0.8,1.9,1.2,3.1,1.2c0.7,0,1.8-0.1,2.5-0.3L158.9,40.5z"/>
<path d="M182.2,35.7c-1.9,3.1-5.9,5.3-10,5.3c-7,0-12-5.1-12-11.8c0-6.7,5-11.8,11.8-11.8c3.9,0,7.5,2,9.6,4.9l-3.4,2.8
	c-1.2-1.7-3.4-3.4-6.2-3.4c-4.1,0-7.2,3.2-7.2,7.4c0,4.4,3.2,7.4,7.5,7.4c3,0,5.1-1.6,6.5-3.5L182.2,35.7z"/>
<path d="M189.6,19.9c1.2-1.1,3.5-2.4,6.6-2.4c3.3,0,6.3,1.5,8.2,4c1.4,1.8,2.2,4.1,2.2,8v11h-4.6V29.2c0-2.9-0.5-4.2-1.3-5.2
	c-1.1-1.3-2.8-2.2-4.7-2.2c-3,0-5.1,1.6-6.5,3.2v15.5h-4.6V6.4h4.6V19.9z"/>
<path d="M214.5,30.1c0.2,3.8,3.4,6.8,7.3,6.8c3.4,0,5.2-1.6,6.5-3.1l3,2.8c-1.7,2.2-4.9,4.2-9.5,4.2c-6.6,0-11.7-5-11.7-11.8
	c0-6.8,4.6-11.8,11-11.8c6.3,0,10.8,5.1,10.8,11.8c0,0.2,0,0.5,0,1H214.5z M214.8,26.3h12.3c-0.7-2.9-3.3-4.9-6-4.9
	C218.2,21.4,215.6,23.4,214.8,26.3z"/>
<path d="M240.1,20.1c1.2-1.2,3.5-2.6,6.8-2.6c3.3,0,6.3,1.5,8.2,4c1.4,1.8,2.2,4.1,2.2,8v11h-4.6V29.2c0-2.9-0.5-4.2-1.3-5.2
	c-1.1-1.3-2.8-2.2-4.7-2.2c-3,0-5.1,1.6-6.5,3.2v15.5h-4.6V17.9h4.4V20.1z"/>
<path class="st0" d="M267.2,34.2c1.9,0,3.4,1.5,3.4,3.4s-1.5,3.4-3.4,3.4s-3.4-1.5-3.4-3.4S265.3,34.2,267.2,34.2z"/>
<path class="st0" d="M276.5,6.4h4.6v34.1h-4.6V6.4z"/>
<path class="st0" d="M289.1,6.9c1.7,0,3,1.3,3,3s-1.3,3-3,3c-1.7,0-3-1.3-3-3S287.4,6.9,289.1,6.9z M286.8,17.9h4.6v22.6h-4.6V17.9z
	"/>
<path class="st0" d="M293.6,17.9h4.7l6.7,15.4l6.7-15.4h4.7l-9.8,22.6h-3.2L293.6,17.9z"/>
<path class="st0" d="M320.7,30.1c0.2,3.8,3.4,6.8,7.3,6.8c3.4,0,5.2-1.6,6.5-3.1l3,2.8c-1.7,2.2-4.9,4.2-9.5,4.2
	c-6.6,0-11.7-5-11.7-11.8c0-6.8,4.6-11.8,11-11.8c6.3,0,10.8,5.1,10.8,11.8c0,0.2,0,0.5,0,1H320.7z M321.1,26.3h12.3
	c-0.7-2.9-3.3-4.9-6-4.9C324.5,21.4,321.9,23.4,321.1,26.3z"/>
</svg>
